<svg width="19" height="12" viewBox="0 0 19 12" fill="none" xmlns="http://www.w3.org/2000/svg">
  <path
    d="M16.5422 6.69512H16.1309C6.49449 6.69512 10.7002 6.69512 1.06028 6.69512C0.887397 6.69999 0.714464 6.68748 0.544039 6.65778C0.395281 6.62873 0.26061 6.54981 0.161901 6.43381C0.0631915 6.31781 0.00621046 6.17155 0.000240396 6.01877C-0.00394179 5.86039 0.0465549 5.70547 0.14308 5.58051C0.239605 5.45555 0.37615 5.36832 0.529377 5.33375C0.676444 5.30516 0.826289 5.29351 0.97596 5.29902H16.6214C16.4949 5.16097 16.4218 5.07415 16.3418 4.99427C15.1209 3.75966 13.8956 2.52852 12.6799 1.2887C12.5415 1.15624 12.4383 0.990862 12.3796 0.807706C12.3438 0.675411 12.3534 0.534785 12.4068 0.408684C12.4602 0.282583 12.5544 0.178421 12.6739 0.113129C12.7908 0.0339422 12.9298 -0.00547792 13.0704 0.000613138C13.2111 0.0067042 13.3462 0.0579891 13.456 0.14699C13.5481 0.221167 13.6344 0.302444 13.7141 0.390091L18.7276 5.44314C19.0864 5.80519 19.0916 6.19068 18.738 6.54666C17.0516 8.24663 15.364 9.94487 13.6754 11.6414C13.538 11.7903 13.3672 11.9038 13.1772 11.9722C12.8718 12.059 12.6068 11.94 12.4399 11.6518C12.2729 11.3635 12.3357 11.044 12.6119 10.7706C13.8016 9.56546 14.9932 8.36239 16.1869 7.16135C16.3151 7.03286 16.4527 6.91391 16.5861 6.79063L16.5422 6.69512Z"
    fill="white" />
</svg>