<svg width="13" height="8" viewBox="0 0 13 8" fill="none" xmlns="http://www.w3.org/2000/svg">
  <path
    d="M11.3184 4.46341H11.037C4.4436 4.46341 7.32117 4.46341 0.725453 4.46341C0.607166 4.46666 0.488844 4.45832 0.372237 4.43852C0.270455 4.41916 0.178312 4.36654 0.110774 4.28921C0.0432363 4.21187 0.00424926 4.11437 0.000164482 4.01252C-0.00269702 3.90693 0.0318533 3.80365 0.0978968 3.72034C0.16394 3.63703 0.257366 3.57888 0.362205 3.55583C0.46283 3.53677 0.565355 3.52901 0.667762 3.53268H11.3725C11.286 3.44065 11.236 3.38277 11.1812 3.32952C10.3459 2.50644 9.50755 1.68568 8.67572 0.859134C8.58103 0.770829 8.51041 0.660575 8.47029 0.538471C8.44579 0.450274 8.45233 0.356523 8.48888 0.272456C8.52544 0.188389 8.58984 0.118947 8.67161 0.075419C8.75162 0.0226281 8.84668 -0.00365195 8.94294 0.000408759C9.0392 0.00446947 9.13162 0.0386594 9.20673 0.0979936C9.26977 0.147445 9.32882 0.20163 9.38334 0.260061L12.8137 3.62876C13.0591 3.87013 13.0627 4.12712 12.8207 4.36444C11.6669 5.49776 10.5122 6.62992 9.35683 7.76092C9.26282 7.86021 9.14595 7.93584 9.01601 7.98145C8.80702 8.03933 8.62568 7.96003 8.51148 7.76787C8.39727 7.5757 8.44025 7.36269 8.62922 7.18037C9.44318 6.37697 10.2585 5.57493 11.0753 4.77424C11.163 4.68857 11.2571 4.60928 11.3484 4.52708L11.3184 4.46341Z"
    fill="#346E65" />
</svg>