<svg width="22" height="22" viewBox="0 0 22 22" fill="none" xmlns="http://www.w3.org/2000/svg">
  <path
    d="M20.2812 0.501953C20.5069 0.498842 20.7288 0.558647 20.9209 0.677734C21.1143 0.797679 21.2678 0.971348 21.3652 1.17676H21.3662L21.3672 1.17969C21.3692 1.18395 21.3721 1.18809 21.374 1.19238H21.3721C21.4723 1.39983 21.5204 1.6249 21.4922 1.85742C21.4636 2.09364 21.3621 2.30279 21.2217 2.48047L21.2158 2.48828L21.21 2.49512C21.1351 2.58282 21.0551 2.66645 20.9707 2.74512L12.708 10.9844C15.4859 13.7631 18.2657 16.5412 21.0479 19.3184L21.2041 19.4893C21.3586 19.679 21.5004 19.9364 21.4951 20.2842H21.4961C21.4961 20.287 21.4951 20.2902 21.4951 20.293C21.495 20.2978 21.4963 20.3027 21.4961 20.3076L21.4941 20.3066C21.4931 20.4694 21.46 20.6295 21.3945 20.7773L21.3154 20.9268C21.2006 21.1098 21.0364 21.2548 20.8438 21.3516L20.8447 21.3535C20.8391 21.3566 20.8328 21.3583 20.8271 21.3613C20.8231 21.3633 20.8195 21.3663 20.8154 21.3682L20.8145 21.3672C20.6164 21.4692 20.3943 21.5149 20.1719 21.4951C19.9383 21.4743 19.7162 21.3842 19.5342 21.2363H19.5332C19.4449 21.1644 19.3626 21.0855 19.2852 21.002V21.0029L10.9658 12.6875L2.66504 21.0518L2.66406 21.0527C2.51375 21.2034 2.32462 21.3522 2.08691 21.4326C1.83677 21.5172 1.57132 21.5137 1.30371 21.4189L1.30273 21.418C1.16401 21.3683 1.03524 21.2944 0.923828 21.1992L0.818359 21.0967C0.718775 20.9881 0.640138 20.8627 0.585938 20.7266L0.540039 20.5869C0.490023 20.3969 0.486895 20.1973 0.53125 20.0059L0.573242 19.8652C0.62224 19.7307 0.694914 19.6057 0.788086 19.4961H0.787109C0.788566 19.4943 0.790517 19.493 0.791992 19.4912C0.792751 19.4903 0.793184 19.4892 0.793945 19.4883H0.794922C0.864998 19.4052 0.952928 19.3224 0.989258 19.2861L9.30762 10.9629L0.944336 2.66602L0.943359 2.66406C0.628761 2.3491 0.486192 1.9268 0.558594 1.52051C0.631245 1.11359 0.912891 0.771933 1.33594 0.619141V0.618164C1.33871 0.617092 1.34195 0.617262 1.34473 0.616211C1.34745 0.615249 1.34981 0.613251 1.35254 0.612305V0.613281C1.57161 0.532196 1.80953 0.516524 2.03711 0.570312L2.20703 0.624023C2.36503 0.687619 2.50713 0.785558 2.625 0.910156L2.62598 0.90918L3.80957 2.0918L10.9951 9.27539C13.7716 6.49915 16.5493 3.72211 19.3262 0.944336C19.5168 0.750397 19.8106 0.504227 20.2588 0.501953V0.500977C20.26 0.500938 20.2615 0.501988 20.2627 0.501953C20.2692 0.501941 20.2757 0.499909 20.2822 0.5L20.2812 0.501953Z"
    fill="#346E65" stroke="#346E65" />
</svg>