<svg width="23" height="20" viewBox="0 0 23 20" fill="none" xmlns="http://www.w3.org/2000/svg">
  <path
    d="M1.1129 2.22222H21.8871C22.4955 2.22222 23 1.71852 23 1.11111C23 0.503704 22.4955 0 21.8871 0H1.1129C0.504516 0 0 0.503704 0 1.11111C0 1.71852 0.504516 2.22222 1.1129 2.22222Z"
    fill="#346E65" />
  <path
    d="M12.9839 8.14815H21.8871C22.4955 8.14815 23 7.64444 23 7.03704C23 6.42963 22.4955 5.92593 21.8871 5.92593H12.9839C12.3755 5.92593 11.871 6.42963 11.871 7.03704C11.871 7.64444 12.3755 8.14815 12.9839 8.14815Z"
    fill="#346E65" />
  <path
    d="M1.1129 11.8519C0.504516 11.8519 0 12.3556 0 12.963C0 13.5704 0.504516 14.0741 1.1129 14.0741H21.8871C22.4955 14.0741 23 13.5704 23 12.963C23 12.3556 22.4955 11.8519 21.8871 11.8519H1.1129Z"
    fill="#346E65" />
  <path
    d="M12.9839 20H21.8871C22.4955 20 23 19.4963 23 18.8889C23 18.2815 22.4955 17.7778 21.8871 17.7778H12.9839C12.3755 17.7778 11.871 18.2815 11.871 18.8889C11.871 19.4963 12.3755 20 12.9839 20Z"
    fill="#346E65" />
</svg>