<svg width="20" height="20" viewBox="0 0 20 20" fill="none" xmlns="http://www.w3.org/2000/svg">
  <path
    d="M19.4761 14.6803L16.6783 11.8885C15.6793 10.8917 13.9819 11.2888 13.58 12.5855C13.2795 13.481 12.2806 13.9794 11.3831 13.7808C9.38516 13.2824 6.68877 10.6892 6.18929 8.59829C5.88882 7.70274 6.48975 6.70595 7.38725 6.40613C8.68667 6.00897 9.08469 4.31131 8.08574 3.31452L5.28789 0.522731C4.48795 -0.174244 3.28999 -0.174244 2.5915 0.522731L0.69505 2.41897C-1.2014 4.41255 0.897963 9.69631 5.59226 14.3805C10.2866 19.0646 15.5818 21.2567 17.5797 19.2632L19.4761 17.3708C20.1746 16.5726 20.1746 15.3772 19.4761 14.6803Z"
    fill="#346E65" />
</svg>