<svg width="50" height="50" viewBox="0 0 50 50" fill="none" xmlns="http://www.w3.org/2000/svg">
  <path
    d="M49.5121 47.3431L42.6425 40.4665C47.3888 33.4649 44.8126 28.4637 41.6901 25.4474C41.2217 24.9941 40.5504 24.9004 39.9883 25.1348C39.3326 23.3844 38.2084 21.9153 37.0062 20.7588C36.5379 20.3055 35.8665 20.2118 35.3044 20.4462C34.6487 18.6958 33.5246 17.2267 32.3224 16.0702C31.854 15.6169 31.1827 15.5232 30.6206 15.7576C29.9649 14.0072 28.8407 12.5381 27.6386 11.3816C27.0297 10.7877 26.0461 10.8033 25.4528 11.3972C24.2194 12.6319 23.3607 13.9759 22.8142 15.3825C21.2061 13.554 18.5051 12.5068 14.071 12.5068C13.2123 12.5068 12.5098 13.2101 12.5098 14.0697C12.5098 18.5082 13.5558 21.212 15.3825 22.8218C14.071 23.3375 12.7127 24.1502 11.4012 25.463C10.7923 26.0725 10.7923 27.0415 11.3856 27.651C12.541 28.8544 14.0086 29.9797 15.7572 30.6361C15.523 31.1987 15.6167 31.8708 16.0695 32.3396C17.2248 33.543 18.6924 34.6683 20.4411 35.3247C20.2069 35.8873 20.3005 36.5594 20.7533 37.0282C21.9087 38.2316 23.3763 39.3569 25.1249 40.0133C24.8907 40.5759 24.9844 41.248 25.4372 41.7168C27.2639 43.6079 29.7931 45.2958 33.0718 45.2958C35.2264 45.2958 37.6776 44.5612 40.4567 42.6702L47.3263 49.5468C47.6386 49.8593 48.0289 50 48.4348 50C48.8407 50 49.2311 49.8437 49.5433 49.5468C50.1522 48.9373 50.1522 47.9526 49.5433 47.3431H49.5121ZM40.3786 38.216L37.943 35.7779C39.6916 33.1992 40.4411 30.8861 40.5503 28.8544C42.7518 31.6363 42.6893 34.6058 40.3786 38.216ZM24.1413 35.9029C26.171 35.8092 28.4817 35.059 31.0578 33.3086L33.4778 35.731C29.8712 38.0441 26.9048 38.091 24.1413 35.9029ZM26.3739 28.62L28.7939 31.0424C25.203 33.3555 22.2209 33.4024 19.4575 31.2143C21.4871 31.1206 23.7978 30.3704 26.3739 28.62ZM35.6948 33.5274L33.2592 31.0893C35.0078 28.5106 35.7572 26.1975 35.8665 24.1658C38.0679 26.9477 38.0055 29.9172 35.6948 33.5274ZM31.0109 28.8388L28.5753 26.4007C30.324 23.822 31.0734 21.5089 31.1827 19.4772C33.3685 22.2591 33.3216 25.2286 31.0109 28.8388ZM26.5925 14.8824C28.6846 17.5862 28.6378 20.4775 26.4832 23.9626C25.0156 21.5402 24.4223 18.0081 26.5925 14.8824ZM21.8306 21.8528C17.7244 21.634 15.9758 20.3368 15.6792 15.6951C20.3318 15.992 21.612 17.7424 21.8306 21.8528ZM19.9883 25.1973C21.3622 25.3067 22.7518 25.7599 23.9383 26.4945C20.4567 28.6669 17.5683 28.6981 14.8673 26.6039C16.7564 25.2911 18.63 25.0879 19.9883 25.1973ZM28.8251 40.5915C30.8548 40.4978 33.1655 39.7476 35.7416 37.9972L38.1616 40.4196C34.5706 42.7327 31.5886 42.7796 28.8251 40.5915Z"
    fill="#346E65" />
  <path
    d="M2.67369 0.457138C2.06479 -0.152379 1.06557 -0.152379 0.456674 0.457138C-0.152225 1.06666 -0.152225 2.06689 0.456674 2.67641L8.26307 10.4907C8.57533 10.8033 8.96565 10.944 9.37158 10.944C9.77752 10.944 10.1678 10.7877 10.4801 10.4907C11.089 9.88122 11.089 8.89662 10.4801 8.2871L2.67369 0.457138Z"
    fill="#346E65" />
  <path
    d="M19.192 10.4907C19.5043 10.8033 19.8946 10.944 20.3005 10.944C20.7065 10.944 21.0968 10.7877 21.4091 10.4907C22.018 9.88122 22.018 8.89662 21.4091 8.2871L13.6027 0.457138C12.9938 -0.152379 12.0101 -0.152379 11.4012 0.457138C10.7923 1.06666 10.7923 2.05126 11.4012 2.66078L19.2076 10.4751L19.192 10.4907Z"
    fill="#346E65" />
  <path
    d="M2.67369 11.3972C2.06479 10.7877 1.08119 10.7877 0.472287 11.3972C-0.136612 12.0067 -0.136612 12.9913 0.472287 13.6008L8.27869 21.4152C8.59094 21.7277 8.98126 21.8684 9.3872 21.8684C9.79313 21.8684 10.1834 21.7121 10.4957 21.4152C11.1046 20.8057 11.1046 19.8211 10.4957 19.2115L2.67369 11.3972Z"
    fill="#346E65" />
</svg>