<svg width="50" height="50" viewBox="0 0 50 50" fill="none" xmlns="http://www.w3.org/2000/svg">
  <path
    d="M25 0C11.2 0 0 11.2 0 25C0 38.8 11.2 50 25 50C38.8 50 50 38.8 50 25C50 11.2 38.8 0 25 0ZM25 46.6667C13.05 46.6667 3.33333 36.95 3.33333 25C3.33333 13.05 13.05 3.33333 25 3.33333C36.95 3.33333 46.6667 13.05 46.6667 25C46.6667 36.95 36.95 46.6667 25 46.6667Z"
    fill="#3D6666" />
  <path
    d="M26.6333 22.1C26.8667 22.2333 27.15 22.3167 27.4167 22.3167C27.6833 22.3167 27.95 22.25 28.1833 22.1L38.2167 14.8333C38.9 14.4 39.0333 13.45 38.4833 12.8C37.2333 11.3 36.05 10.2 34 9.05C31.9667 7.9 30.4 7.45 28.4667 7.16667C28.3833 7.16667 28.3167 7.15 28.2333 7.15C27.4833 7.15 26.8667 7.7 26.85 8.45L25.8333 20.8C25.8333 21.3833 26.1667 21.8667 26.6333 22.1333V22.1ZM30 10.8833C30.7167 11.1167 31.4667 11.4333 32.35 11.9333C33.2333 12.4333 33.9 12.9 34.4667 13.4L29.4833 17.0167L29.9833 10.8833H30Z"
    fill="#3D6666" />
  <path
    d="M42.2667 19.2667C42.05 18.6833 41.5167 18.3333 40.9833 18.3333C40.7833 18.3333 40.5667 18.3833 40.3667 18.4833L29.1167 23.65C28.6 23.9333 28.35 24.4667 28.35 25C28.35 25.5333 28.6 26.0667 29.1167 26.35L40.3667 31.5167C40.5667 31.6167 40.7667 31.6667 40.9833 31.6667C41.5333 31.6667 42.05 31.3167 42.2667 30.7333C42.95 28.9167 43.3333 27.3333 43.3333 25C43.3333 22.6667 42.95 21.0667 42.2667 19.2667ZM39.75 27.5667L34.1667 25L39.75 22.4333C39.9 23.1833 40 23.9833 40 25C40 26.0167 39.9167 26.8167 39.75 27.5667Z"
    fill="#3D6666" />
  <path
    d="M38.7833 34.4L28.35 27.7167C28.1333 27.6 27.8833 27.5333 27.65 27.5333C27.35 27.5333 27.05 27.6333 26.8 27.7833C26.35 28.0667 26.0333 28.5833 26.0833 29.1667L27.8167 41.4333C27.8667 42.15 28.4667 42.65 29.1833 42.65C29.2833 42.65 29.4 42.65 29.5 42.6167C31.4 42.2167 32.9333 41.6833 34.9 40.4167C36.8667 39.15 38 37.9833 39.15 36.4167C39.6667 35.7333 39.4833 34.8 38.7667 34.4H38.7833ZM33.1 37.6167C32.25 38.1667 31.5167 38.5333 30.8167 38.8L29.95 32.7167L35.1333 36.0333C34.6 36.5667 33.95 37.0833 33.1 37.6167Z"
    fill="#3D6666" />
  <path
    d="M11.2167 15.6L21.65 22.2833C21.8667 22.4 22.1167 22.4667 22.35 22.4667C22.65 22.4667 22.95 22.3667 23.2 22.2167C23.65 21.9333 23.9667 21.4167 23.9167 20.85L22.1833 8.58333C22.1333 7.86667 21.5333 7.36667 20.8167 7.36667C20.7167 7.36667 20.6 7.36667 20.5 7.4C18.6 7.8 17.0667 8.33333 15.1 9.6C13.1333 10.8667 12 12.0333 10.85 13.6C10.3333 14.2833 10.5167 15.2167 11.2333 15.6167L11.2167 15.6ZM16.9 12.3833C17.75 11.8333 18.4833 11.4667 19.1833 11.2L20.05 17.2833L14.8667 13.9667C15.4 13.4333 16.05 12.9167 16.9 12.3833Z"
    fill="#3D6666" />
  <path
    d="M21.6667 25C21.6667 24.4667 21.4167 23.9333 20.9 23.65L9.65 18.4833C9.45 18.3833 9.25 18.3333 9.03333 18.3333C8.48333 18.3333 7.96667 18.6833 7.75 19.2667C7.06667 21.0833 6.68333 22.6667 6.68333 25C6.68333 27.3333 7.06667 28.9333 7.75 30.7333C7.96667 31.3167 8.5 31.6667 9.03333 31.6667C9.23333 31.6667 9.45 31.6167 9.65 31.5167L20.9 26.35C21.4167 26.0667 21.6667 25.5333 21.6667 25ZM10.25 27.5667C10.1 26.8167 10 26.0167 10 25C10 23.9833 10.0833 23.1833 10.25 22.4333L15.8333 25L10.25 27.5667Z"
    fill="#3D6666" />
  <path
    d="M23.3667 27.9C23.1333 27.7667 22.85 27.6833 22.5833 27.6833C22.3167 27.6833 22.05 27.75 21.8167 27.9L11.7833 35.1667C11.1 35.6 10.9667 36.55 11.5167 37.2C12.7667 38.7 13.95 39.8 16 40.95C18.0333 42.1 19.6 42.55 21.5333 42.8333C21.6167 42.8333 21.6833 42.85 21.7667 42.85C22.5167 42.85 23.1333 42.3 23.15 41.55L24.1667 29.2C24.1667 28.6167 23.8333 28.1333 23.3667 27.8667V27.9ZM20 39.1167C19.2667 38.8833 18.5333 38.5667 17.65 38.0667C16.7667 37.5667 16.1 37.1 15.5333 36.6L20.5167 32.9833L20.0167 39.1167H20Z"
    fill="#3D6666" />
</svg>