<svg width="50" height="50" viewBox="0 0 50 50" fill="none" xmlns="http://www.w3.org/2000/svg">
  <path
    d="M46.4336 34.8226C45.8046 34.1936 45.1433 33.6613 44.4498 33.1936C46.0143 29.871 44.9659 25.2581 41.5951 21.8871C40.9016 21.1935 40.1597 20.629 39.4016 20.129C41.2725 16.7903 40.2726 11.9194 36.7566 8.40322C34.418 6.06452 31.4503 4.83871 28.7569 4.83871C26.7731 4.83871 24.9345 5.5 23.5797 6.85484C23.1765 7.25806 22.8378 7.69355 22.5636 8.17742C20.7411 7.04839 18.7573 6.45161 16.9025 6.45161C14.9187 6.45161 13.0801 7.1129 11.7253 8.46774C10.9834 9.20968 10.4512 10.1129 10.1125 11.0968C9.95121 11.0484 9.80605 11 9.64477 10.9516C7.03197 9.96774 4.59659 6.90323 3.66114 3.96774C3.40309 3.16129 3.25793 2.35484 3.25793 1.6129C3.25793 0.725806 2.53216 0 1.64509 0C0.758034 0 0 0.709677 0 1.59677C0 5.37097 2.46764 9.87097 5.83847 12.4355C5.03205 12.7742 4.27402 13.2419 3.64501 13.871C0.435466 17.0806 1.12899 22.9839 5.19334 27.0484C5.70944 27.5645 6.25781 28.0161 6.8223 28.4194C3.66114 31.6452 4.35466 37.5 8.41901 41.5645C10.7576 43.9032 13.7252 45.129 16.4187 45.129C18.096 45.129 19.6444 44.629 20.9185 43.6613C21.2249 44.0484 21.5475 44.4194 21.9023 44.7903C24.2409 47.129 27.2086 48.3548 29.902 48.3548C31.789 48.3548 33.547 47.7419 34.8857 46.5C37.2243 48.8064 40.1435 50 42.8047 50C44.7885 50 46.6271 49.3387 47.9819 47.9839C51.1915 44.7742 50.4979 38.871 46.4336 34.8064V34.8226ZM45.6917 45.7097C44.8046 46.5968 43.6273 46.7903 42.7886 46.7903C40.8532 46.7903 38.7081 45.8064 37.063 44.1613C35.6276 42.7258 34.6921 40.9032 34.4825 39.1452C34.3857 38.2903 34.3857 36.6613 35.5147 35.5323C36.4017 34.6452 37.5791 34.4516 38.4178 34.4516C40.3532 34.4516 42.4983 35.4355 44.1434 37.0806C46.9013 39.8387 47.611 43.7903 45.6917 45.6936V45.7097ZM10.6931 39.2903C9.25769 37.8548 8.32224 36.0323 8.11257 34.2742C8.0158 33.4194 8.0158 31.7903 9.14479 30.6613C10.0318 29.7742 11.2092 29.5806 12.0479 29.5806C13.9833 29.5806 16.1284 30.5645 17.7735 32.2097C18.2251 32.6613 18.6121 33.1613 18.9508 33.6774C18.0315 35.7903 18.1606 38.4194 19.2412 40.8871C18.3702 41.7097 17.2251 41.9032 16.4187 41.9032C14.4833 41.9032 12.3382 40.9194 10.6931 39.2742V39.2903ZM5.91911 16.1613C6.80617 15.2742 7.98355 15.0806 8.82222 15.0806C9.14479 15.0806 9.48349 15.1129 9.82218 15.1774C10.0964 16.8871 10.8383 18.629 12.0156 20.1935C11.6608 22.1613 12.0156 24.3548 13.064 26.4355C12.7253 26.4032 12.3866 26.371 12.0479 26.371C11.3705 26.371 10.7254 26.4839 10.0802 26.629C9.14479 26.1774 8.25773 25.5484 7.46744 24.7742C6.03201 23.3387 5.09657 21.5161 4.8869 19.7581C4.79013 18.9032 4.79013 17.2742 5.91911 16.1452V16.1613ZM16.8864 9.66129C18.8218 9.66129 20.9669 10.6452 22.612 12.2903C23.8377 13.5161 24.628 14.9677 24.999 16.3871C23.112 15.1452 21.0314 14.5 19.096 14.5C17.1122 14.5 15.2736 15.1613 13.9188 16.5161C13.8381 16.5968 13.7898 16.6774 13.7091 16.7581C13.322 15.9677 13.064 15.1613 12.9672 14.3548C12.8704 13.5 12.8704 11.871 13.9994 10.7419C14.8865 9.85484 16.0639 9.66129 16.9025 9.66129H16.8864ZM41.5306 31.7581C40.4822 31.4194 39.4339 31.2419 38.4178 31.2419C36.7888 31.2419 35.2728 31.7097 34.0147 32.629C33.3857 32.2419 32.7729 31.7742 32.2245 31.2258C29.4665 28.4677 28.7569 24.5161 30.6762 22.6129C31.5632 21.7258 32.7406 21.5323 33.5793 21.5323C35.5147 21.5323 37.6598 22.5161 39.3049 24.1613C41.6435 26.5 42.4821 29.6774 41.5306 31.7581ZM15.1445 22.4194C15.0478 21.5645 15.0478 19.9355 16.1768 18.8065C17.0638 17.9194 18.2412 17.7258 19.0799 17.7258C21.0153 17.7258 23.1603 18.7097 24.8054 20.3548C25.6441 21.1935 26.2893 22.1613 26.7408 23.1774C26.257 24.7742 26.3054 26.5806 26.8376 28.3548C26.7086 28.5645 26.5473 28.7742 26.3538 28.9677C26.0635 29.2581 25.757 29.4516 25.4344 29.5968C24.5958 29.5968 23.7732 29.7581 23.0152 30C21.2088 29.871 19.2573 28.9194 17.7412 27.4032C16.3058 25.9677 15.3703 24.1452 15.1607 22.3871L15.1445 22.4194ZM36.4179 18.7419C35.4663 18.4516 34.5147 18.3064 33.5793 18.3064C32.1277 18.3064 30.7568 18.6613 29.5956 19.3871C29.1924 19.1613 28.7892 18.9032 28.4182 18.6129C28.6117 15.8548 27.4666 12.7419 25.1119 10.2419C25.2732 9.83871 25.499 9.45161 25.8538 9.1129C26.7408 8.22581 27.9182 8.03226 28.7569 8.03226C30.6923 8.03226 32.8374 9.01613 34.4825 10.6613C36.9985 13.1774 37.7888 16.6935 36.434 18.7419H36.4179ZM22.6281 33.9032C23.5152 33.0161 24.6925 32.8226 25.5312 32.8226C27.4666 32.8226 29.6117 33.8064 31.2568 35.4516C31.4019 35.5968 31.5148 35.7581 31.6439 35.9032C30.8213 38.3387 31.2568 41.3226 32.8696 43.9839C32.8374 44.0161 32.8374 44.0484 32.8051 44.0645C31.9181 44.9516 30.7407 45.1452 29.902 45.1452C27.9666 45.1452 25.8215 44.1613 24.1764 42.5161C21.4185 39.7581 20.7088 35.8065 22.6281 33.9032Z"
    fill="#3D6666" />
</svg>